<svg xmlns="http://www.w3.org/2000/svg" viewBox="0 0 64 64" fill="none">
  <defs>
    <linearGradient id="brand-mark-gradient" x1="10" y1="10" x2="54" y2="54" gradientUnits="userSpaceOnUse">
      <stop stop-color="#00D4FF" />
      <stop offset="1" stop-color="#7A5CFF" />
    </linearGradient>
  </defs>
  <rect width="64" height="64" rx="18" fill="#07131F" />
  <path
    d="M19.5 22.5C19.5 16.977 23.977 12.5 29.5 12.5H43.5V20.5H29.5C28.395 20.5 27.5 21.395 27.5 22.5C27.5 23.605 28.395 24.5 29.5 24.5H34.5C40.023 24.5 44.5 28.977 44.5 34.5C44.5 40.023 40.023 44.5 34.5 44.5H20.5V36.5H34.5C35.605 36.5 36.5 35.605 36.5 34.5C36.5 33.395 35.605 32.5 34.5 32.5H29.5C23.977 32.5 19.5 28.023 19.5 22.5Z"
    fill="url(#brand-mark-gradient)"
  />
  <path
    d="M22 47.5L42 16.5"
    stroke="rgba(255,255,255,0.14)"
    stroke-linecap="round"
    stroke-width="2.5"
  />
</svg>
